<svg width="37" height="37" viewBox="0 0 37 37" fill="none" xmlns="http://www.w3.org/2000/svg">
<rect width="37" height="37" rx="18.5" fill="#E9F6FF"/>
<path d="M18.35 29.5075C17.26 29.5075 16.18 29.1875 15.33 28.5575L11.03 25.3475C9.89 24.4975 9 22.7275 9 21.3075V13.8675C9 12.3275 10.13 10.6875 11.58 10.1475L16.57 8.2775C17.56 7.9075 19.12 7.9075 20.11 8.2775L25.11 10.1475C26.56 10.6875 27.69 12.3275 27.69 13.8675V21.2975C27.69 22.7175 26.8 24.4875 25.66 25.3375L21.36 28.5475C20.52 29.1875 19.44 29.5075 18.35 29.5075ZM17.1 9.6875L12.11 11.5575C11.25 11.8775 10.5 12.9575 10.5 13.8775V21.3075C10.5 22.2575 11.17 23.5875 11.92 24.1475L16.22 27.3575C17.37 28.2175 19.32 28.2175 20.47 27.3575L24.77 24.1475C25.53 23.5775 26.19 22.2475 26.19 21.3075V13.8675C26.19 12.9575 25.44 11.8775 24.58 11.5475L19.59 9.6775C18.93 9.4375 17.77 9.4375 17.1 9.6875Z" fill="#292D32"/>
<path d="M18.3496 19.9976C16.8296 19.9976 15.5996 18.7676 15.5996 17.2476C15.5996 15.7276 16.8296 14.4976 18.3496 14.4976C19.8696 14.4976 21.0996 15.7276 21.0996 17.2476C21.0996 18.7676 19.8696 19.9976 18.3496 19.9976ZM18.3496 15.9976C17.6596 15.9976 17.0996 16.5576 17.0996 17.2476C17.0996 17.9376 17.6596 18.4976 18.3496 18.4976C19.0396 18.4976 19.5996 17.9376 19.5996 17.2476C19.5996 16.5576 19.0396 15.9976 18.3496 15.9976Z" fill="#292D32"/>
<path d="M18.3496 22.9976C17.9396 22.9976 17.5996 22.6576 17.5996 22.2476V19.2476C17.5996 18.8376 17.9396 18.4976 18.3496 18.4976C18.7596 18.4976 19.0996 18.8376 19.0996 19.2476V22.2476C19.0996 22.6576 18.7596 22.9976 18.3496 22.9976Z" fill="#292D32"/>
</svg>
