<svg width="22" height="7" viewBox="0 0 22 7" fill="none" xmlns="http://www.w3.org/2000/svg">
<path d="M11 5.58053C16.5228 5.58053 21 4.57896 21 3.34349C21 2.108 16.5228 1.10645 11 1.10645C5.47715 1.10645 1 2.108 1 3.34349C1 4.57896 5.47715 5.58053 11 5.58053Z" stroke="#929CA8" stroke-width="1.5" stroke-linecap="round" stroke-linejoin="round"/>
<path d="M6.99998 1.33008H7.99998C6.04998 2.63651 6.04998 4.05032 7.99998 5.35676H6.99998" stroke="#929CA8" stroke-width="1.5" stroke-linecap="round" stroke-linejoin="round"/>
<path d="M14 1.33008C15.95 2.63651 15.95 4.05032 14 5.35676" stroke="#929CA8" stroke-width="1.5" stroke-linecap="round" stroke-linejoin="round"/>
<path d="M2 4.23835V4.01465C7.84 4.45087 14.16 4.45087 20 4.01465V4.23835" stroke="#929CA8" stroke-width="1.5" stroke-linecap="round" stroke-linejoin="round"/>
<path d="M2 2.67287C7.84 2.23665 14.16 2.23665 20 2.67287" stroke="#929CA8" stroke-width="1.5" stroke-linecap="round" stroke-linejoin="round"/>
</svg>
