<svg width="50" height="50" viewBox="0 0 50 50" fill="none" xmlns="http://www.w3.org/2000/svg">
<circle cx="25" cy="25" r="18" fill="white"/>
<circle cx="25" cy="25" r="24.5" stroke="#CCCCCC" stroke-dasharray="3 3"/>
<path opacity="0.4" d="M25 43C34.941 43 43 34.941 43 25C43 15.0589 34.941 7 25 7C15.0589 7 7 15.0589 7 25C7 34.941 15.0589 43 25 43Z" fill="white"/>
<path d="M31.7368 23.7368H26.2632V18.2632C26.2632 17.5726 25.6905 17 25 17C24.3095 17 23.7368 17.5726 23.7368 18.2632V23.7368H18.2632C17.5726 23.7368 17 24.3095 17 25C17 25.6905 17.5726 26.2632 18.2632 26.2632H23.7368V31.7368C23.7368 32.4274 24.3095 33 25 33C25.6905 33 26.2632 32.4274 26.2632 31.7368V26.2632H31.7368C32.4274 26.2632 33 25.6905 33 25C33 24.3095 32.4274 23.7368 31.7368 23.7368Z" fill="#292D32"/>
</svg>
