<svg width="124" height="27" viewBox="0 0 124 27" fill="none" xmlns="http://www.w3.org/2000/svg">
<path d="M0 0.256408H8.84341V26.7305H0V0.256408Z" fill="#3864FF"/>
<path d="M17.6868 9.10249H26.5302V26.7305H17.6868V9.10249Z" fill="#3864FF"/>
<path d="M17.6868 0H26.5302V9.10249H17.6868V0Z" fill="#90A8FF"/>
<path d="M44.153 0.256408H52.9964V26.7305H44.153V0.256408Z" fill="#90C6E3"/>
<path d="M79.5266 0.256408H88.37V26.7305H79.5266V0.256408Z" fill="#FFA422"/>
<path d="M26.5302 0.256408L52.9964 26.7305H26.5302V0.256408Z" fill="#B8DDF1"/>
<path d="M79.5266 0.256408L53.0605 26.7305V0.256408H79.5266Z" fill="#F4C37D"/>
<path d="M53.0605 0.256408L79.5266 26.7305H53.0605V0.256408Z" fill="#F5E0C1"/>
<path d="M0 26.7305V17.9486H17.6868V26.7305H0Z" fill="#90A8FF"/>
<path d="M79.5266 0.256408H97.1494V5.44867H79.5266V0.256408Z" fill="#FF5353"/>
<path d="M79.5266 10.8973H97.1494V16.0896H79.5266V10.8973Z" fill="#FF5353"/>
<path d="M79.5266 21.5383H97.1494V26.7305H79.5266V21.5383Z" fill="#FF5353"/>
<path d="M124 13.4935C124 20.8041 118.061 26.7305 110.735 26.7305C103.409 26.7305 97.4698 20.8041 97.4698 13.4935C97.4698 6.18284 103.409 0.256408 110.735 0.256408C118.061 0.256408 124 6.18284 124 13.4935Z" fill="#6FE9A7"/>
<path d="M97.4057 0.256408H110.35V26.7305H97.4057V0.256408Z" fill="#D4FCBC"/>
<path d="M103.949 21.4189C104.416 21.4189 104.815 21.503 105.148 21.671C105.479 21.8378 105.733 22.0655 105.909 22.3542C106.085 22.6416 106.173 22.9676 106.173 23.3322C106.173 23.6968 106.085 24.0235 105.909 24.3122C105.731 24.5996 105.477 24.8273 105.146 24.9954C104.813 25.1621 104.414 25.2455 103.949 25.2455C103.482 25.2455 103.083 25.1621 102.752 24.9954C102.42 24.8273 102.165 24.5996 101.989 24.3122C101.813 24.0235 101.725 23.6968 101.725 23.3322C101.725 22.9676 101.813 22.6416 101.989 22.3542C102.165 22.0655 102.42 21.8378 102.752 21.671C103.083 21.503 103.482 21.4189 103.949 21.4189ZM103.949 22.1773C103.621 22.1773 103.344 22.2268 103.118 22.3257C102.891 22.4233 102.72 22.5589 102.604 22.7324C102.487 22.9059 102.429 23.1058 102.429 23.3322C102.429 23.5586 102.487 23.7585 102.604 23.932C102.72 24.1055 102.891 24.2418 103.118 24.3407C103.344 24.4383 103.621 24.4871 103.949 24.4871C104.277 24.4871 104.555 24.4383 104.782 24.3407C105.008 24.2418 105.179 24.1055 105.296 23.932C105.411 23.7585 105.469 23.5586 105.469 23.3322C105.469 23.1058 105.411 22.9059 105.296 22.7324C105.179 22.5589 105.008 22.4233 104.782 22.3257C104.555 22.2268 104.277 22.1773 103.949 22.1773Z" fill="#1D6940"/>
<path d="M106.114 20.7058H101.784V19.1442C101.784 18.8243 101.842 18.5559 101.957 18.339C102.073 18.1208 102.235 17.9561 102.444 17.845C102.651 17.7325 102.892 17.6762 103.169 17.6762C103.446 17.6762 103.687 17.7331 103.892 17.847C104.095 17.9595 104.252 18.1256 104.363 18.3451C104.473 18.5647 104.528 18.8345 104.528 19.1544V20.2666H103.877V19.256C103.877 19.069 103.85 18.9158 103.797 18.7965C103.742 18.6772 103.662 18.5891 103.558 18.5322C103.452 18.4739 103.322 18.4448 103.169 18.4448C103.015 18.4448 102.884 18.4739 102.775 18.5322C102.666 18.5905 102.582 18.6793 102.526 18.7986C102.468 18.9178 102.439 19.0717 102.439 19.2601V19.9514H106.114V20.7058ZM104.152 18.5546L106.114 17.5237V18.3655L104.152 19.378V18.5546Z" fill="#1D6940"/>
<path d="M101.784 16.2275H106.114V16.9818H101.784V16.2275Z" fill="#1D6940"/>
<path d="M103.167 12.621C103.052 12.6549 102.95 12.7017 102.86 12.7613C102.768 12.8196 102.69 12.8901 102.625 12.9728C102.561 13.0541 102.512 13.1476 102.479 13.2534C102.446 13.3591 102.429 13.4743 102.429 13.599C102.429 13.8227 102.487 14.0219 102.604 14.1968C102.721 14.3717 102.893 14.5092 103.12 14.6095C103.346 14.7085 103.621 14.758 103.945 14.758C104.272 14.758 104.549 14.7085 104.776 14.6095C105.003 14.5106 105.175 14.373 105.294 14.1968C105.411 14.0206 105.469 13.8159 105.469 13.5828C105.469 13.3713 105.427 13.1883 105.342 13.0338C105.258 12.8779 105.138 12.7579 104.983 12.6739C104.826 12.5898 104.643 12.5478 104.433 12.5478L104.461 12.377V13.5075H103.847V11.8179H104.368C104.738 11.8179 105.059 11.8938 105.33 12.0456C105.6 12.1974 105.809 12.4062 105.956 12.6719C106.101 12.9375 106.173 13.2425 106.173 13.5868C106.173 13.9704 106.084 14.3073 105.905 14.5974C105.724 14.8861 105.469 15.1118 105.137 15.2744C104.805 15.4357 104.41 15.5164 103.953 15.5164C103.604 15.5164 103.291 15.4689 103.017 15.3741C102.742 15.2778 102.508 15.1436 102.317 14.9715C102.124 14.7993 101.977 14.5974 101.877 14.3656C101.775 14.1338 101.725 13.8816 101.725 13.6092C101.725 13.3788 101.76 13.1639 101.83 12.9646C101.899 12.7654 101.998 12.5885 102.126 12.434C102.255 12.2781 102.407 12.15 102.583 12.0497C102.759 11.9494 102.954 11.8836 103.167 11.8525V12.621Z" fill="#1D6940"/>
<path d="M101.784 10.3341H106.114V11.0885H101.784V10.3341Z" fill="#1D6940"/>
<path d="M101.784 6.0953H106.114V6.76627L103.165 8.72836V8.76293H106.114V9.51726H101.784V8.84222L104.736 6.88217V6.84557H101.784V6.0953Z" fill="#1D6940"/>
<path d="M102.974 3.01034C102.79 3.02932 102.646 3.10929 102.543 3.25027C102.44 3.38988 102.389 3.57152 102.389 3.79518C102.389 3.95242 102.413 4.08729 102.463 4.1998C102.512 4.3123 102.579 4.39838 102.663 4.45802C102.748 4.51766 102.845 4.54816 102.953 4.54952C103.043 4.54952 103.122 4.52986 103.188 4.49055C103.254 4.44989 103.31 4.39499 103.357 4.32586C103.402 4.25673 103.44 4.18014 103.471 4.0961C103.502 4.01206 103.528 3.92734 103.549 3.84194L103.651 3.45156C103.689 3.29432 103.74 3.14318 103.805 2.99814C103.87 2.85175 103.952 2.72094 104.05 2.60572C104.149 2.48915 104.268 2.39698 104.408 2.3292C104.547 2.26143 104.711 2.22754 104.898 2.22754C105.152 2.22754 105.376 2.28989 105.569 2.4146C105.76 2.5393 105.91 2.71959 106.019 2.95544C106.126 3.18995 106.18 3.47392 106.18 3.80738C106.18 4.13134 106.128 4.41261 106.023 4.65118C105.919 4.88839 105.767 5.0741 105.567 5.20829C105.366 5.34113 105.122 5.41297 104.835 5.42381V4.68168C104.986 4.67083 105.111 4.6261 105.211 4.54748C105.311 4.46886 105.386 4.36652 105.435 4.24046C105.485 4.11304 105.509 3.97072 105.509 3.81348C105.509 3.64946 105.484 3.50578 105.433 3.38243C105.381 3.25772 105.309 3.16013 105.218 3.08964C105.125 3.01915 105.016 2.98323 104.892 2.98188C104.779 2.98323 104.686 3.01509 104.613 3.07744C104.538 3.13979 104.476 3.22722 104.427 3.33973C104.376 3.45088 104.331 3.58101 104.292 3.73011L104.165 4.20386C104.073 4.5468 103.934 4.8179 103.748 5.01716C103.561 5.21507 103.312 5.31402 103.002 5.31402C102.747 5.31402 102.523 5.2476 102.331 5.11476C102.14 4.98057 101.991 4.79825 101.885 4.56781C101.778 4.33738 101.725 4.07644 101.725 3.78501C101.725 3.48951 101.778 3.23061 101.885 3.00831C101.991 2.78465 102.138 2.60911 102.327 2.4817C102.515 2.35428 102.73 2.28854 102.974 2.28447V3.01034Z" fill="#1D6940"/>
</svg>
