<svg width="36" height="36" viewBox="0 0 36 36" fill="none" xmlns="http://www.w3.org/2000/svg">
<mask id="mask0_0_15" style="mask-type:luminance" maskUnits="userSpaceOnUse" x="0" y="0" width="37" height="37">
<path d="M36.0071 0H0V36.0071H36.0071V0Z" fill="white"/>
</mask>
<g mask="url(#mask0_0_15)">
<path d="M18.0035 3.24204C22.8139 3.24204 23.3835 3.26314 25.2753 3.34753C27.0334 3.42489 27.9828 3.72027 28.6158 3.9664C29.4527 4.28991 30.0575 4.68373 30.6834 5.30963C31.3163 5.94258 31.7031 6.54035 32.0266 7.37724C32.2728 8.01015 32.5681 8.96659 32.6455 10.7177C32.7299 12.6165 32.751 13.1862 32.751 17.9895C32.751 22.7998 32.7299 23.3694 32.6455 25.2612C32.5681 27.0194 32.2728 27.9688 32.0266 28.6017C31.7031 29.4386 31.3093 30.0434 30.6834 30.6693C30.0505 31.3022 29.4527 31.6891 28.6158 32.0125C27.9828 32.2587 27.0264 32.5541 25.2753 32.6314C23.3765 32.7158 22.8068 32.7369 18.0035 32.7369C13.1932 32.7369 12.6236 32.7158 10.7318 32.6314C8.97364 32.5541 8.02425 32.2587 7.3913 32.0125C6.55441 31.6891 5.94961 31.2953 5.32371 30.6693C4.69077 30.0364 4.30397 29.4386 3.98047 28.6017C3.73433 27.9688 3.43896 27.0124 3.3616 25.2612C3.27721 23.3624 3.25611 22.7928 3.25611 17.9895C3.25611 13.1792 3.27721 12.6095 3.3616 10.7177C3.43896 8.95954 3.73433 8.01015 3.98047 7.37724C4.30397 6.54035 4.6978 5.93554 5.32371 5.30963C5.95664 4.6767 6.55441 4.28991 7.3913 3.9664C8.02425 3.72027 8.98069 3.42489 10.7318 3.34753C12.6236 3.26314 13.1932 3.24204 18.0035 3.24204ZM18.0035 0C13.1159 0 12.5041 0.0210979 10.5841 0.105489C8.67125 0.189881 7.35613 0.499317 6.21685 0.942373C5.02833 1.40653 4.02267 2.01836 3.02403 3.02403C2.01837 4.02267 1.40653 5.02834 0.942373 6.20982C0.499317 7.35613 0.189881 8.6642 0.105489 10.5771C0.0210979 12.504 0 13.1159 0 18.0035C0 22.8912 0.0210979 23.503 0.105489 25.4229C0.189881 27.3358 0.499317 28.651 0.942373 29.7902C1.40653 30.9788 2.01837 31.9844 3.02403 32.9831C4.02267 33.9817 5.02834 34.6006 6.20982 35.0577C7.35613 35.5007 8.6642 35.8102 10.5771 35.8946C12.497 35.9789 13.1088 36 17.9965 36C22.8842 36 23.496 35.9789 25.416 35.8946C27.3288 35.8102 28.6439 35.5007 29.7832 35.0577C30.9647 34.6006 31.9704 33.9817 32.969 32.9831C33.9676 31.9844 34.5865 30.9788 35.0436 29.7973C35.4867 28.651 35.7961 27.3429 35.8805 25.43C35.9649 23.5101 35.986 22.8983 35.986 18.0106C35.986 13.1229 35.9649 12.511 35.8805 10.5912C35.7961 8.67831 35.4867 7.36317 35.0436 6.22388C34.6006 5.02833 33.9887 4.02267 32.9831 3.02403C31.9844 2.0254 30.9788 1.40653 29.7973 0.949402C28.651 0.50635 27.3429 0.196914 25.43 0.112522C23.5031 0.0210979 22.8912 0 18.0035 0Z" fill="white"/>
<path d="M18.0036 8.75543C12.8979 8.75543 8.75567 12.8977 8.75567 18.0033C8.75567 23.109 12.8979 27.2512 18.0036 27.2512C23.1092 27.2512 27.2515 23.109 27.2515 18.0033C27.2515 12.8977 23.1092 8.75543 18.0036 8.75543ZM18.0036 24.0022C14.6912 24.0022 12.0047 21.3157 12.0047 18.0033C12.0047 14.691 14.6912 12.0045 18.0036 12.0045C21.3159 12.0045 24.0024 14.691 24.0024 18.0033C24.0024 21.3157 21.3159 24.0022 18.0036 24.0022Z" fill="white"/>
<path d="M29.7762 8.38969C29.7762 9.5852 28.8057 10.5487 27.6172 10.5487C26.4217 10.5487 25.4582 9.57823 25.4582 8.38969C25.4582 7.19413 26.4287 6.23066 27.6172 6.23066C28.8057 6.23066 29.7762 7.20116 29.7762 8.38969Z" fill="white"/>
</g>
</svg>
