<svg width="17" height="17" viewBox="0 0 17 17" fill="none" xmlns="http://www.w3.org/2000/svg">
<path d="M6.12754 7.51162C4.92568 7.51162 3.95312 6.53906 3.95312 5.3372C3.95312 4.13534 4.92568 3.16278 6.12754 3.16278C7.3294 3.16278 8.30196 4.13534 8.30196 5.3372C8.30196 6.53906 7.3294 7.51162 6.12754 7.51162ZM6.12754 4.34883C5.58196 4.34883 5.13917 4.79162 5.13917 5.3372C5.13917 5.88278 5.58196 6.32557 6.12754 6.32557C6.67313 6.32557 7.11592 5.88278 7.11592 5.3372C7.11592 4.79162 6.67313 4.34883 6.12754 4.34883Z" fill="#A7A7A7"/>
<path d="M10.8721 17H6.12791C1.83442 17 0 15.1656 0 10.8721V6.12791C0 1.83442 1.83442 0 6.12791 0H9.2907C9.61488 0 9.88372 0.268837 9.88372 0.593023C9.88372 0.917209 9.61488 1.18605 9.2907 1.18605H6.12791C2.48279 1.18605 1.18605 2.48279 1.18605 6.12791V10.8721C1.18605 14.5172 2.48279 15.814 6.12791 15.814H10.8721C14.5172 15.814 15.814 14.5172 15.814 10.8721V6.9186C15.814 6.59442 16.0828 6.32558 16.407 6.32558C16.7312 6.32558 17 6.59442 17 6.9186V10.8721C17 15.1656 15.1656 17 10.8721 17Z" fill="#A7A7A7"/>
<path d="M15.813 3.55815H11.4641C11.1399 3.55815 10.8711 3.28931 10.8711 2.96512C10.8711 2.64094 11.1399 2.3721 11.4641 2.3721H15.813C16.1371 2.3721 16.406 2.64094 16.406 2.96512C16.406 3.28931 16.1371 3.55815 15.813 3.55815Z" fill="#A7A7A7"/>
<path d="M13.6399 5.73255C13.3157 5.73255 13.0469 5.46371 13.0469 5.13952V0.790686C13.0469 0.4665 13.3157 0.197662 13.6399 0.197662C13.9641 0.197662 14.2329 0.4665 14.2329 0.790686V5.13952C14.2329 5.46371 13.9641 5.73255 13.6399 5.73255Z" fill="#A7A7A7"/>
<path d="M1.12225 14.5885C0.932483 14.5885 0.742715 14.4936 0.632018 14.3275C0.450157 14.0587 0.52132 13.6871 0.790157 13.5052L4.6883 10.888C5.54225 10.3187 6.72039 10.382 7.49526 11.0382L7.75619 11.2675C8.15154 11.6075 8.82363 11.6075 9.21107 11.2675L12.5004 8.44474C13.3464 7.72521 14.659 7.72521 15.505 8.44474L16.7939 9.55172C17.039 9.76521 17.0706 10.1368 16.8571 10.3899C16.6436 10.635 16.272 10.6666 16.019 10.4531L14.7301 9.34614C14.3348 9.00614 13.6627 9.00614 13.2753 9.34614L9.98595 12.1689C9.14782 12.8885 7.82735 12.8885 6.9813 12.1689L6.72039 11.9396C6.35667 11.6313 5.75574 11.5996 5.35248 11.8764L1.46225 14.4936C1.35155 14.5568 1.23295 14.5885 1.12225 14.5885Z" fill="#A7A7A7"/>
</svg>
