<svg width="35" height="38" viewBox="0 0 35 38" fill="none" xmlns="http://www.w3.org/2000/svg">
<path d="M14.0817 1.93067L3.53577 8.81535C0.154744 11.0227 0.154744 15.9627 3.53577 18.17L14.0817 25.0547C15.9737 26.2985 19.092 26.2985 20.9839 25.0547L31.4774 18.17C34.8409 15.9627 34.8409 11.0402 31.4774 8.83287L20.9839 1.94819C19.092 0.686872 15.9737 0.686872 14.0817 1.93067Z" stroke="white" stroke-width="2" stroke-linecap="round" stroke-linejoin="round"/>
<path d="M6.33978 20.412L6.32227 28.628C6.32227 30.8529 8.03906 33.2353 10.1412 33.9361L15.7296 35.793C16.6931 36.1083 18.2872 36.1083 19.2683 35.793L24.8566 33.9361C26.9588 33.2353 28.6756 30.8529 28.6756 28.628V20.4996" stroke="white" stroke-width="2" stroke-linecap="round" stroke-linejoin="round"/>
<path d="M33.9648 23.7759V13.2649" stroke="white" stroke-width="2" stroke-linecap="round" stroke-linejoin="round"/>
</svg>
