<svg width="22" height="21" viewBox="0 0 22 21" fill="none" xmlns="http://www.w3.org/2000/svg">
<path d="M21.2326 9.28872V2.82178C21.2326 1.59388 20.2298 0.683179 19.0121 0.785505H18.9507C16.8019 0.969691 13.5377 2.06457 11.7163 3.21062L11.5423 3.32318C11.2456 3.50736 10.7544 3.50736 10.4577 3.32318L10.2019 3.16969C8.38047 2.03388 5.12651 0.949226 2.97767 0.775272C1.76 0.672946 0.767442 1.59388 0.767442 2.81155V15.1724C0.767442 16.1548 1.56558 17.0757 2.54791 17.1985L2.84465 17.2394C5.06512 17.5362 8.49302 18.6617 10.4577 19.7362L10.4986 19.7566C10.7749 19.9101 11.2149 19.9101 11.4809 19.7566C13.4456 18.672 16.8837 17.5362 19.1144 17.2394L19.4521 17.1985C20.4344 17.0757 21.2326 16.1548 21.2326 15.1724V13.4124" stroke="white" stroke-width="1.5" stroke-linecap="round" stroke-linejoin="round"/>
<path d="M11 3.6609V19.0097" stroke="white" stroke-width="1.5" stroke-linecap="round" stroke-linejoin="round"/>
<path d="M6.65116 6.73067H4.34884" stroke="white" stroke-width="1.5" stroke-linecap="round" stroke-linejoin="round"/>
<path d="M7.4186 9.80043H4.34884" stroke="white" stroke-width="1.5" stroke-linecap="round" stroke-linejoin="round"/>
</svg>
