<svg width="54" height="38" viewBox="0 0 54 38" fill="none" xmlns="http://www.w3.org/2000/svg">
<path d="M26.4899 24.2172C26.3731 24.2055 26.2329 24.2055 26.1043 24.2172C23.3234 24.1237 21.115 21.8452 21.115 19.041C21.115 16.1782 23.4285 13.853 26.303 13.853C29.1657 13.853 31.4909 16.1782 31.4909 19.041C31.4792 21.8452 29.2708 24.1237 26.4899 24.2172Z" stroke="white" stroke-width="2" stroke-linecap="round" stroke-linejoin="round"/>
<path d="M5.80015 6.84226C5.7212 6.83567 5.62646 6.83567 5.53961 6.84226C3.66059 6.78957 2.16846 5.50519 2.16846 3.92442C2.16846 2.31072 3.73165 1 5.67383 1C7.60808 1 9.17917 2.31072 9.17917 3.92442C9.17127 5.50519 7.67914 6.78957 5.80015 6.84226Z" stroke="white" stroke-width="2" stroke-linecap="round" stroke-linejoin="round"/>
<path d="M47.8644 6.84226C47.7854 6.83567 47.6907 6.83567 47.6038 6.84226C45.7248 6.78957 44.2327 5.50519 44.2327 3.92442C44.2327 2.31072 45.7959 1 47.738 1C49.6723 1 51.2434 2.31072 51.2434 3.92442C51.2355 5.50519 49.7433 6.78957 47.8644 6.84226Z" stroke="white" stroke-width="2" stroke-linecap="round" stroke-linejoin="round"/>
<path d="M20.6476 28.5287C17.8199 30.4216 17.8199 33.5064 20.6476 35.3876C23.8608 37.5375 29.1306 37.5375 32.3438 35.3876C35.1715 33.4947 35.1715 30.41 32.3438 28.5287C29.1423 26.3905 23.8725 26.3905 20.6476 28.5287Z" stroke="white" stroke-width="2" stroke-linecap="round" stroke-linejoin="round"/>
<path d="M2.24383 10.1092C0.585389 11.2068 0.585389 12.9956 2.24383 14.0864C4.12843 15.3331 7.21919 15.3331 9.10378 14.0864C10.7622 12.9888 10.7622 11.2 9.10378 10.1092C7.22604 8.86922 4.13528 8.86922 2.24383 10.1092Z" stroke="white" stroke-width="2" stroke-linecap="round" stroke-linejoin="round"/>
<path d="M44.308 10.1092C42.6496 11.2068 42.6496 12.9956 44.308 14.0864C46.1926 15.3331 49.2834 15.3331 51.168 14.0864C52.8264 12.9888 52.8264 11.2 51.168 10.1092C49.2902 8.86922 46.1995 8.86922 44.308 10.1092Z" stroke="white" stroke-width="2" stroke-linecap="round" stroke-linejoin="round"/>
<path d="M5.0896 20.2795V24.4587C5.0896 26.6678 6.88046 28.4587 9.0896 28.4587H16.1899" stroke="white"/>
<path d="M48.3223 19.6953V23.8745C48.3223 26.0836 46.5314 27.8745 44.3223 27.8745H37.222" stroke="white"/>
</svg>
