<svg width="38" height="38" viewBox="0 0 38 38" fill="none" xmlns="http://www.w3.org/2000/svg">
<path d="M29.7925 10.2869C29.6845 10.2689 29.5585 10.2689 29.4505 10.2869C26.9668 10.1969 24.9871 8.16315 24.9871 5.64345C24.9871 3.06976 27.0568 1 29.6305 1C32.2042 1 34.274 3.08775 34.274 5.64345C34.256 8.16315 32.2762 10.1969 29.7925 10.2869Z" stroke="white" stroke-width="2" stroke-linecap="round" stroke-linejoin="round"/>
<path d="M27.9383 23.3895C30.404 23.8034 33.1217 23.3715 35.0294 22.0936C37.5671 20.4018 37.5671 17.6301 35.0294 15.9383C33.1037 14.6606 30.35 14.2286 27.8843 14.6606" stroke="white" stroke-width="2" stroke-linecap="round" stroke-linejoin="round"/>
<path d="M8.14089 10.2869C8.24888 10.2689 8.37487 10.2689 8.48285 10.2869C10.9666 10.1969 12.9463 8.16315 12.9463 5.64345C12.9463 3.06976 10.8766 1 8.30287 1C5.72918 1 3.65942 3.08775 3.65942 5.64345C3.67742 8.16315 5.65719 10.1969 8.14089 10.2869Z" stroke="white" stroke-width="2" stroke-linecap="round" stroke-linejoin="round"/>
<path d="M9.99444 23.3895C7.52873 23.8034 4.81105 23.3715 2.90328 22.0936C0.365575 20.4018 0.365575 17.6301 2.90328 15.9383C4.82905 14.6606 7.58272 14.2286 10.0484 14.6606" stroke="white" stroke-width="2" stroke-linecap="round" stroke-linejoin="round"/>
<path d="M18.9937 23.7313C18.8857 23.7133 18.7598 23.7133 18.6518 23.7313C16.1681 23.6413 14.1882 21.6075 14.1882 19.0878C14.1882 16.5141 16.2581 14.4443 18.8318 14.4443C21.4055 14.4443 23.4752 16.5321 23.4752 19.0878C23.4572 21.6075 21.4774 23.6593 18.9937 23.7313Z" stroke="white" stroke-width="2" stroke-linecap="round" stroke-linejoin="round"/>
<path d="M13.7561 29.4003C11.2184 31.0921 11.2184 33.8638 13.7561 35.5556C16.6358 37.4814 21.3512 37.4814 24.2309 35.5556C26.7686 33.8638 26.7686 31.0921 24.2309 29.4003C21.3692 27.4925 16.6358 27.4925 13.7561 29.4003Z" stroke="white" stroke-width="2" stroke-linecap="round" stroke-linejoin="round"/>
</svg>
