<svg width="22" height="23" viewBox="0 0 22 23" fill="none" xmlns="http://www.w3.org/2000/svg">
<path d="M10.7794 22.248C16.3173 22.248 20.8068 17.4359 20.8068 11.5C20.8068 5.56407 16.3173 0.752052 10.7794 0.752052C5.24145 0.752052 0.752052 5.56407 0.752052 11.5C0.752052 17.4359 5.24145 22.248 10.7794 22.248Z" stroke="#3F3F3F" stroke-width="1.5" stroke-linecap="round" stroke-linejoin="round"/>
<path d="M6.76844 1.82685H7.77118C5.81584 8.10366 5.81584 14.8964 7.77118 21.1732H6.76844" stroke="#3F3F3F" stroke-width="1.5" stroke-linecap="round" stroke-linejoin="round"/>
<path d="M13.7876 1.82685C15.7429 8.10366 15.7429 14.8964 13.7876 21.1732" stroke="#3F3F3F" stroke-width="1.5" stroke-linecap="round" stroke-linejoin="round"/>
<path d="M1.75479 15.7999V14.7244C7.61076 16.8215 13.9481 16.8215 19.804 14.7244V15.7999" stroke="#3F3F3F" stroke-width="1.5" stroke-linecap="round" stroke-linejoin="round"/>
<path d="M1.75479 8.27669C7.61076 6.17955 13.9481 6.17955 19.804 8.27669" stroke="#3F3F3F" stroke-width="1.5" stroke-linecap="round" stroke-linejoin="round"/>
</svg>
