<svg width="36" height="36" viewBox="0 0 36 36" fill="none" xmlns="http://www.w3.org/2000/svg">
<mask id="mask0_0_23" style="mask-type:luminance" maskUnits="userSpaceOnUse" x="0" y="0" width="36" height="36">
<path d="M36 0H0V36H36V0Z" fill="white"/>
</mask>
<g mask="url(#mask0_0_23)">
<path d="M33.3351 0H2.65781C1.18828 0 0 1.16016 0 2.59453V33.3984C0 34.8327 1.18828 36 2.65781 36H33.3351C34.8046 36 36 34.8328 36 33.4054V2.59453C36 1.16016 34.8046 0 33.3351 0ZM10.6804 30.6773H5.33672V13.4929H10.6804V30.6773ZM8.00857 11.1516C6.29296 11.1516 4.90781 9.76641 4.90781 8.05777C4.90781 6.34921 6.29296 4.96406 8.00857 4.96406C9.71721 4.96406 11.1023 6.34921 11.1023 8.05777C11.1023 9.75936 9.71721 11.1516 8.00857 11.1516ZM30.6773 30.6773H25.3406V22.3242C25.3406 20.3343 25.3054 17.7679 22.5633 17.7679C19.7859 17.7679 19.364 19.9406 19.364 22.1835V30.6773H14.0344V13.4929H19.1531V15.8414H19.2234C19.9336 14.4914 21.6773 13.0641 24.2718 13.0641C29.6789 13.0641 30.6773 16.6219 30.6773 21.2485V30.6773Z" fill="white"/>
</g>
</svg>
