<svg width="31" height="36" viewBox="0 0 31 36" fill="none" xmlns="http://www.w3.org/2000/svg">
<path d="M24.1009 16.6854C23.9458 16.6111 23.7883 16.5395 23.6287 16.4711C23.3508 11.351 20.5531 8.4197 15.8555 8.3897C15.8342 8.38962 15.813 8.38962 15.7917 8.38962C12.9819 8.38962 10.645 9.58895 9.20668 11.7715L11.7902 13.5437C12.8647 11.9135 14.5511 11.566 15.7929 11.566C15.8073 11.566 15.8217 11.566 15.8359 11.5661C17.3827 11.5759 18.5499 12.0257 19.3053 12.9027C19.855 13.5412 20.2227 14.4236 20.4048 15.5371C19.0334 15.304 17.5502 15.2323 15.9647 15.3232C11.4985 15.5804 8.62715 18.1854 8.81997 21.8049C8.91785 23.6409 9.83248 25.2204 11.3954 26.2522C12.7168 27.1244 14.4187 27.551 16.1874 27.4545C18.5232 27.3264 20.3556 26.4352 21.634 24.8056C22.6049 23.5681 23.219 21.9644 23.4901 19.9437C24.6033 20.6155 25.4284 21.4996 25.8839 22.5624C26.6587 24.3689 26.7039 27.3377 24.2816 29.7579C22.1592 31.8782 19.6081 32.7954 15.7526 32.8238C11.4758 32.7921 8.24135 31.4205 6.13841 28.7471C4.16918 26.2438 3.15146 22.628 3.11349 18.0001C3.15146 13.3722 4.16918 9.75635 6.13841 7.25305C8.24135 4.5797 11.4758 3.20814 15.7526 3.17637C20.0604 3.20838 23.3512 4.58654 25.5346 7.27279C26.6053 8.5901 27.4125 10.2467 27.9446 12.1783L30.9722 11.3705C30.3272 8.993 29.3122 6.94424 27.9311 5.24515C25.1319 1.80126 21.038 0.0365905 15.7631 0H15.742C10.4779 0.0364633 6.42979 1.80785 3.71032 5.26489C1.29036 8.34125 0.0420752 12.6217 0.000127495 17.9874L0 18.0001L0.000127495 18.0128C0.0420752 23.3784 1.29036 27.659 3.71032 30.7354C6.42979 34.1923 10.4779 35.9638 15.742 36.0002H15.7631C20.4432 35.9677 23.7421 34.7424 26.4598 32.0273C30.0153 28.475 29.9083 24.0225 28.7364 21.2891C27.8957 19.3289 26.2927 17.7369 24.1009 16.6854ZM16.0202 24.2827C14.0627 24.393 12.029 23.5144 11.9287 21.6324C11.8544 20.237 12.9218 18.68 16.1403 18.4945C16.5089 18.4732 16.8706 18.4629 17.2259 18.4629C18.395 18.4629 19.4886 18.5764 20.483 18.7938C20.1121 23.4254 17.9367 24.1775 16.0202 24.2827Z" fill="white"/>
</svg>
