<svg width="113" height="45" viewBox="0 0 113 45" fill="none" xmlns="http://www.w3.org/2000/svg">
<path d="M23.5 36C31.5081 36 38 29.5081 38 21.5C38 13.4919 31.5081 7 23.5 7C15.4919 7 9 13.4919 9 21.5C9 29.5081 15.4919 36 23.5 36Z" fill="white"/>
<path d="M77 7H72V17H77V7Z" fill="white"/>
<path d="M77 22H72V33H77V22Z" fill="white"/>
<path d="M107 22H102V33H107V22Z" fill="white"/>
<path d="M90.8579 13.2441C91.48 12.5925 92.2322 12.0821 93.0645 11.7467C93.8969 11.4112 94.7904 11.2585 95.6857 11.2986C97.6366 11.2986 99.1518 11.8987 100.291 13.109C101.237 14.1916 101.805 15.5591 101.905 17H107C106.891 13.9092 106.043 11.5003 104.455 9.7732C102.742 7.92941 100.469 7.00584 97.6366 7.00251C95.7559 6.95903 93.9048 7.48128 92.3186 8.50288C90.7803 9.52237 89.6272 11.0359 89.0456 12.799V7.40761H84V17H89.1942C89.3565 15.6059 89.9371 14.2954 90.8579 13.2441Z" fill="white"/>
<path d="M89 22H84V33H89V22Z" fill="white"/>
<path d="M113 17H107C107 17.2284 107 17.4518 107 17.6852V22H112.965L113 17Z" fill="white"/>
<path d="M65.9655 17.1635V7.32743H60.9367V13.1942C60.3178 11.3709 59.1597 9.79825 57.6286 8.70181C55.9636 7.53639 53.9895 6.94278 51.9835 7.00435C49.9948 6.96202 48.0338 7.49461 46.3188 8.54283C44.628 9.61734 43.272 11.1774 42.4141 13.0352C41.4332 15.183 40.9503 17.5402 41.004 19.9173C40.9573 22.195 41.3933 24.4553 42.281 26.5379C42.228 26.97 42.2 27.405 42.1971 27.8405V34.1227C42.4289 38.2714 44.0509 40.7894 46.1413 42.4715C48.2317 44.1536 50.9975 44.9946 54.4092 44.9946C56.5614 45.0601 58.6917 44.5291 60.5817 43.4561C62.2786 42.4539 63.663 40.9659 64.5702 39.1689C65.5233 37.233 66.0009 35.0818 65.9605 32.9073V22.3276H72V17.1635H65.9655ZM48.1725 13.8147C48.8639 13.0681 49.7004 12.4834 50.6262 12.0996C51.552 11.7158 52.5459 11.5417 53.5415 11.589C54.8714 11.5653 56.1824 11.92 57.3328 12.6147C58.4525 13.3224 59.3594 14.3421 59.9507 15.5583C60.2083 16.0701 60.4148 16.6079 60.5669 17.1635H52.4815C50.1989 17.1645 47.9824 17.9607 46.1856 19.425C46.2695 17.0711 46.9252 15.1993 48.1725 13.8147ZM60.6853 22.3276C60.5271 23.0286 60.2801 23.7046 59.9507 24.3379C59.3471 25.5471 58.4299 26.5561 57.3032 27.2508C56.1537 27.9477 54.8421 28.3025 53.5119 28.2764C52.5179 28.3222 51.526 28.1475 50.602 27.7637C49.678 27.38 48.8431 26.7961 48.1528 26.0508C47.9901 25.8661 47.8323 25.6713 47.6598 25.4713C48.0944 24.5258 48.7784 23.7282 49.6321 23.1716C50.4857 22.6151 51.474 22.3223 52.4815 22.3276H60.6853ZM60.9367 32.8714C60.9367 35.3193 60.2892 37.1842 58.9942 38.4663C58.3355 39.1103 57.5607 39.6123 56.7145 39.9432C55.8683 40.2741 54.9675 40.4275 54.0641 40.3945C52.4765 40.4624 50.9071 40.0221 49.5677 39.133C48.3944 38.2919 47.1815 35.774 47.1865 34.3842V31.8201C48.6887 32.5573 50.3325 32.9291 51.9934 32.9073C53.9993 32.9688 55.9735 32.3752 57.6384 31.2098C59.1631 30.1132 60.3171 28.545 60.9367 26.7277V32.8714Z" fill="white"/>
<path d="M74.5 5C75.8807 5 77 3.88071 77 2.5C77 1.11929 75.8807 0 74.5 0C73.1193 0 72 1.11929 72 2.5C72 3.88071 73.1193 5 74.5 5Z" fill="white"/>
</svg>
