<svg width="35" height="38" viewBox="0 0 35 38" fill="none" xmlns="http://www.w3.org/2000/svg">
<path d="M14.0817 1.93067L3.53577 8.81535C0.154744 11.0227 0.154744 15.9627 3.53577 18.17L14.0817 25.0547C15.9737 26.2985 19.092 26.2985 20.9839 25.0547L31.4774 18.17C34.8409 15.9627 34.8409 11.0402 31.4774 8.83287L20.9839 1.94819C19.092 0.686872 15.9737 0.686872 14.0817 1.93067Z" stroke="white" stroke-width="2" stroke-linecap="round" stroke-linejoin="round"/>
<path d="M6.33881 20.4119L6.32129 28.6279C6.32129 30.8528 8.03808 33.2352 10.1403 33.936L15.7286 35.7929C16.6921 36.1082 18.2863 36.1082 19.2673 35.7929L24.8556 33.936C26.9578 33.2352 28.6746 30.8528 28.6746 28.6279V20.4995" stroke="white" stroke-width="2" stroke-linecap="round" stroke-linejoin="round"/>
<path d="M33.9648 23.7759V13.2649" stroke="white" stroke-width="2" stroke-linecap="round" stroke-linejoin="round"/>
</svg>
