<svg width="38" height="38" viewBox="0 0 38 38" fill="none" xmlns="http://www.w3.org/2000/svg">
<path d="M15.5556 24H8.8C2.72 24 0 21.28 0 15.2001V8.79991C0 2.71991 2.72 0 8.8 0H15.2C21.28 0 24 2.71991 24 8.79991V15.5556C24 16.2844 23.4133 16.8711 22.6844 16.8889C18.4178 16.96 16.96 18.4356 16.8889 22.6844C16.8711 23.4133 16.2844 24 15.5556 24ZM8.8 2.66667C4.21333 2.66667 2.66667 4.21324 2.66667 8.79991V15.2001C2.66667 19.7867 4.21333 21.3333 8.8 21.3333H14.2933C14.72 16.9956 16.9956 14.7378 21.3333 14.2934V8.79991C21.3333 4.21324 19.7867 2.66667 15.2 2.66667H8.8Z" fill="white"/>
<path d="M6.60403 10C6.11104 10 5.59661 9.81561 5.29653 9.46342C4.78211 8.89321 4.95358 8.10492 5.68235 7.70242C7.35423 6.78003 9.60482 6.76323 11.2981 7.66885C12.0269 8.05457 12.2198 8.84287 11.7268 9.41307C11.2339 9.98328 10.2264 10.1341 9.49765 9.74841C8.91892 9.44653 8.1473 9.44655 7.56858 9.76519C7.24706 9.9329 6.92554 10 6.60403 10Z" fill="white"/>
<path d="M14.1457 10C13.7936 10 13.4262 9.81561 13.2118 9.46342C12.8444 8.89321 12.9668 8.10492 13.4874 7.70242C14.6816 6.78003 16.2892 6.76323 17.4987 7.66885C18.0192 8.05457 18.157 8.84287 17.8049 9.41307C17.4527 9.98328 16.7332 10.1341 16.2126 9.74841C15.7992 9.44653 15.2481 9.44655 14.8347 9.76519C14.6051 9.9329 14.3754 10 14.1457 10Z" fill="white"/>
<path d="M11.7388 20H7.40805C6.08269 20 5 18.8985 5 17.5505C5 13.9429 7.8934 11 11.4401 11C12.8962 11 14.3335 11.5124 15.4723 12.4428C16.0696 12.9365 16.1816 13.829 15.6963 14.4366C15.2109 15.0442 14.3335 15.1391 13.7362 14.6644C13.0828 14.1328 12.2988 13.8481 11.4588 13.8481C9.5921 13.8481 8.04273 15.2911 7.83739 17.1519H11.7575C12.5228 17.1519 13.1575 17.7975 13.1575 18.576C13.1575 19.3544 12.5042 20 11.7388 20Z" fill="white"/>
<path d="M29.2 38H22.8C16.72 38 14 35.28 14 29.2V22.4444C14.1067 16.7733 16.7733 14.1067 22.4267 14H29.2C35.28 14 38 16.72 38 22.8V29.2C38 35.28 35.28 38 29.2 38ZM22.4444 16.6667C18.2133 16.7378 16.7378 18.2133 16.6667 22.4622V29.2C16.6667 33.7867 18.2133 35.3333 22.8 35.3333H29.2C33.7867 35.3333 35.3333 33.7867 35.3333 29.2V22.8C35.3333 18.2133 33.7867 16.6667 29.2 16.6667H22.4444Z" fill="white"/>
<path d="M23.0168 24C22.1514 24 21.3043 23.7651 20.5862 23.2954C19.9601 22.8928 19.8128 22.1045 20.2547 21.5342C20.6967 20.9638 21.5621 20.8294 22.1882 21.232C22.6853 21.5508 23.3482 21.5508 23.8454 21.2488C24.4715 20.863 25.3369 20.9972 25.7604 21.5843C26.1839 22.1547 26.0366 22.9431 25.3922 23.329C24.674 23.7819 23.8454 24 23.0168 24Z" fill="white"/>
<path d="M30.0168 24C29.1514 24 28.3043 23.7651 27.5862 23.2954C26.9601 22.8928 26.8128 22.1045 27.2547 21.5342C27.6967 20.9638 28.5621 20.8294 29.1882 21.232C29.6853 21.5508 30.3482 21.5508 30.8454 21.2488C31.4715 20.863 32.3369 20.9972 32.7604 21.5843C33.1839 22.1547 33.0366 22.9431 32.3922 23.329C31.674 23.7819 30.8454 24 30.0168 24Z" fill="white"/>
<path d="M26.5 34C22.9203 34 20 31.0568 20 27.4492C20 26.1011 21.0928 25 22.4304 25H30.5696C31.9072 25 33 26.1011 33 27.4492C33 31.0568 30.0797 34 26.5 34ZM22.8449 27.8481C23.0333 29.7089 24.5971 31.1519 26.5 31.1519C28.4029 31.1519 29.9478 29.7089 30.1551 27.8481H22.8449Z" fill="white"/>
</svg>
