<svg width="22" height="6" viewBox="0 0 22 6" fill="none" xmlns="http://www.w3.org/2000/svg">
<path d="M10.7966 5.24674C16.3434 5.24674 20.84 4.24083 20.84 3C20.84 1.75915 16.3434 0.753253 10.7966 0.753253C5.24982 0.753253 0.753253 1.75915 0.753253 3C0.753253 4.24083 5.24982 5.24674 10.7966 5.24674Z" stroke="#929CA8" stroke-width="1.5" stroke-linecap="round" stroke-linejoin="round"/>
<path d="M6.77925 0.977947H7.78359C5.82513 2.29005 5.82513 3.70999 7.78359 5.02209H6.77925" stroke="#929CA8" stroke-width="1.5" stroke-linecap="round" stroke-linejoin="round"/>
<path d="M13.8096 0.977947C15.7681 2.29005 15.7681 3.70999 13.8096 5.02209" stroke="#929CA8" stroke-width="1.5" stroke-linecap="round" stroke-linejoin="round"/>
<path d="M1.75759 3.89871V3.67404C7.62292 4.11215 13.9703 4.11215 19.8357 3.67404V3.89871" stroke="#929CA8" stroke-width="1.5" stroke-linecap="round" stroke-linejoin="round"/>
<path d="M1.75759 2.32601C7.62292 1.8879 13.9703 1.8879 19.8357 2.32601" stroke="#929CA8" stroke-width="1.5" stroke-linecap="round" stroke-linejoin="round"/>
</svg>
