<svg width="35" height="35" viewBox="0 0 35 35" fill="none" xmlns="http://www.w3.org/2000/svg">
<path d="M19.209 24.4189H16.1485C13.9834 24.4189 12.209 22.5957 12.209 20.3492C12.209 19.6817 12.7625 19.1282 13.4299 19.1282C14.0974 19.1282 14.6508 19.6817 14.6508 20.3492C14.6508 21.2445 15.3183 21.9771 16.1485 21.9771H19.209C19.8439 21.9771 20.3485 21.4073 20.3485 20.7073C20.3485 19.8282 20.1043 19.698 19.5508 19.5027L14.6508 17.7933C13.609 17.4352 12.209 16.6701 12.209 14.2771C12.209 12.2422 13.8206 10.5655 15.7904 10.5655H18.8508C21.016 10.5655 22.7904 12.3887 22.7904 14.6352C22.7904 15.3027 22.2369 15.8561 21.5694 15.8561C20.902 15.8561 20.3485 15.3027 20.3485 14.6352C20.3485 13.7399 19.6811 13.0074 18.8508 13.0074H15.7904C15.1555 13.0074 14.6508 13.5771 14.6508 14.2771C14.6508 15.1561 14.895 15.2864 15.4485 15.4817L20.3485 17.191C21.3904 17.5492 22.7904 18.3143 22.7904 20.7073C22.7904 22.7585 21.1788 24.4189 19.209 24.4189Z" fill="white"/>
<path d="M17.5002 26.0465C16.8328 26.0465 16.2793 25.493 16.2793 24.8256V10.1744C16.2793 9.50698 16.8328 8.95349 17.5002 8.95349C18.1677 8.95349 18.7212 9.50698 18.7212 10.1744V24.8256C18.7212 25.493 18.1677 26.0465 17.5002 26.0465Z" fill="white"/>
<path d="M17.5 35C7.84651 35 0 27.1535 0 17.5C0 7.84651 7.84651 0 17.5 0C18.1674 0 18.7209 0.553488 18.7209 1.22093C18.7209 1.88837 18.1674 2.44186 17.5 2.44186C9.19767 2.44186 2.44186 9.19767 2.44186 17.5C2.44186 25.8023 9.19767 32.5581 17.5 32.5581C25.8023 32.5581 32.5581 25.8023 32.5581 17.5C32.5581 16.8326 33.1116 16.2791 33.7791 16.2791C34.4465 16.2791 35 16.8326 35 17.5C35 27.1535 27.1535 35 17.5 35Z" fill="white"/>
<path d="M32.1505 10.5814H25.6389C24.9715 10.5814 24.418 10.0279 24.418 9.36046V2.84883C24.418 2.18139 24.9715 1.6279 25.6389 1.6279C26.3063 1.6279 26.8598 2.18139 26.8598 2.84883V8.13953H32.1505C32.818 8.13953 33.3715 8.69302 33.3715 9.36046C33.3715 10.0279 32.818 10.5814 32.1505 10.5814Z" fill="white"/>
<path d="M25.6387 10.5813C25.3294 10.5813 25.0201 10.4673 24.7759 10.2232C24.3039 9.75106 24.3039 8.96967 24.7759 8.49757L32.9155 0.358037C33.3876 -0.114056 34.169 -0.114056 34.6411 0.358037C35.1132 0.83013 35.1132 1.61153 34.6411 2.08362L26.5015 10.2232C26.2573 10.4673 25.948 10.5813 25.6387 10.5813Z" fill="white"/>
</svg>
