<svg width="36" height="36" viewBox="0 0 36 36" fill="none" xmlns="http://www.w3.org/2000/svg">
<mask id="mask0_0_9" style="mask-type:luminance" maskUnits="userSpaceOnUse" x="0" y="0" width="36" height="36">
<path d="M36 0H0V36H36V0Z" fill="white"/>
</mask>
<g mask="url(#mask0_0_9)">
<path d="M18 0C8.05897 0 0 8.05897 0 18C0 26.4412 5.81183 33.5246 13.6519 35.47V23.5008H9.94034V18H13.6519V15.6298C13.6519 9.50324 16.4246 6.66359 22.4395 6.66359C23.58 6.66359 25.5477 6.88751 26.3527 7.11071V12.0967C25.9279 12.052 25.1899 12.0298 24.2733 12.0298C21.322 12.0298 20.1816 13.1479 20.1816 16.0546V18H26.0611L25.0509 23.5008H20.1816V35.8682C29.0944 34.7918 36.0007 27.203 36.0007 18C36 8.05897 27.941 0 18 0Z" fill="white"/>
</g>
</svg>
