<svg width="54" height="38" viewBox="0 0 54 38" fill="none" xmlns="http://www.w3.org/2000/svg">
<path d="M26.4901 24.2172C26.3733 24.2055 26.2331 24.2055 26.1045 24.2172C23.3236 24.1237 21.1152 21.8452 21.1152 19.0409C21.1152 16.1782 23.4288 13.853 26.3032 13.853C29.1659 13.853 31.4911 16.1782 31.4911 19.0409C31.4794 21.8452 29.2711 24.1237 26.4901 24.2172Z" stroke="white" stroke-width="2" stroke-linecap="round" stroke-linejoin="round"/>
<path d="M5.79965 6.84225C5.7207 6.83567 5.62597 6.83567 5.53912 6.84225C3.6601 6.78956 2.16797 5.50519 2.16797 3.92442C2.16797 2.31072 3.73116 0.999999 5.67334 0.999999C7.60759 0.999999 9.17867 2.31072 9.17867 3.92442C9.17078 5.50519 7.67864 6.78956 5.79965 6.84225Z" stroke="white" stroke-width="2" stroke-linecap="round" stroke-linejoin="round"/>
<path d="M47.8641 6.84225C47.7851 6.83567 47.6904 6.83567 47.6035 6.84225C45.7245 6.78956 44.2324 5.50519 44.2324 3.92442C44.2324 2.31072 45.7956 0.999999 47.7378 0.999999C49.672 0.999999 51.2431 2.31072 51.2431 3.92442C51.2352 5.50519 49.7431 6.78956 47.8641 6.84225Z" stroke="white" stroke-width="2" stroke-linecap="round" stroke-linejoin="round"/>
<path d="M20.6481 28.5287C17.8204 30.4216 17.8204 33.5063 20.6481 35.3875C23.8613 37.5375 29.1311 37.5375 32.3443 35.3875C35.1719 33.4946 35.1719 30.4099 32.3443 28.5287C29.1427 26.3905 23.873 26.3905 20.6481 28.5287Z" stroke="white" stroke-width="2" stroke-linecap="round" stroke-linejoin="round"/>
<path d="M2.24383 10.1091C0.585389 11.2068 0.585389 12.9955 2.24383 14.0864C4.12843 15.3331 7.21918 15.3331 9.10377 14.0864C10.7622 12.9888 10.7622 11.2 9.10377 10.1091C7.22603 8.86921 4.13528 8.86921 2.24383 10.1091Z" stroke="white" stroke-width="2" stroke-linecap="round" stroke-linejoin="round"/>
<path d="M44.3083 10.1091C42.6498 11.2068 42.6498 12.9955 44.3083 14.0864C46.1928 15.3331 49.2836 15.3331 51.1682 14.0864C52.8266 12.9888 52.8266 11.2 51.1682 10.1091C49.2905 8.86921 46.1997 8.86921 44.3083 10.1091Z" stroke="white" stroke-width="2" stroke-linecap="round" stroke-linejoin="round"/>
<path d="M5.08984 20.2795V24.4587C5.08984 26.6678 6.8807 28.4587 9.08984 28.4587H16.1901" stroke="white"/>
<path d="M48.3222 19.6953V23.8745C48.3222 26.0836 46.5314 27.8745 44.3222 27.8745H37.2219" stroke="white"/>
</svg>
