<svg width="22" height="21" viewBox="0 0 22 21" fill="none" xmlns="http://www.w3.org/2000/svg">
<path d="M14.2717 20.8328C14.057 20.8328 13.8423 20.8021 13.6276 20.751C12.9938 20.5772 12.4622 20.1785 12.1248 19.6162L12.0021 19.4117C11.3989 18.369 10.5709 18.369 9.96769 19.4117L9.85523 19.606C9.51787 20.1785 8.98626 20.5874 8.35241 20.751C7.70835 20.9248 7.04383 20.8328 6.48155 20.4954L4.72315 19.4833C4.09953 19.1255 3.64971 18.5428 3.45547 17.8373C3.27145 17.1319 3.36346 16.4061 3.72127 15.7825C4.01775 15.2611 4.09953 14.7908 3.92574 14.4943C3.75194 14.1979 3.31234 14.0241 2.70917 14.0241C1.21657 14.0241 0 12.8075 0 11.3149V9.5156C0 8.023 1.21657 6.80644 2.70917 6.80644C3.31234 6.80644 3.75194 6.63264 3.92574 6.33616C4.09953 6.03969 4.02797 5.56942 3.72127 5.04803C3.36346 4.42441 3.27145 3.68834 3.45547 2.99316C3.63948 2.28775 4.08931 1.70502 4.72315 1.34721L6.49178 0.335105C7.64701 -0.349854 9.17027 0.0488533 9.86546 1.22453L9.98814 1.42899C10.5913 2.47177 11.4194 2.47177 12.0226 1.42899L12.135 1.23475C12.8302 0.0488533 14.3535 -0.349854 15.5189 0.345328L17.2773 1.35743C17.9009 1.71525 18.3508 2.29797 18.545 3.00338C18.729 3.70878 18.637 4.43464 18.2792 5.05826C17.9827 5.57964 17.9009 6.04991 18.0747 6.34639C18.2485 6.64286 18.6881 6.81666 19.2913 6.81666C20.7839 6.81666 22.0005 8.03323 22.0005 9.52583V11.3251C22.0005 12.8177 20.7839 14.0343 19.2913 14.0343C18.6881 14.0343 18.2485 14.2081 18.0747 14.5046C17.9009 14.801 17.9725 15.2713 18.2792 15.7927C18.637 16.4163 18.7393 17.1524 18.545 17.8476C18.361 18.553 17.9112 19.1357 17.2773 19.4935L15.5087 20.5056C15.1202 20.7203 14.7011 20.8328 14.2717 20.8328ZM10.99 17.0502C11.8999 17.0502 12.7484 17.6227 13.3311 18.6348L13.4436 18.829C13.5663 19.0437 13.7707 19.197 14.0161 19.2584C14.2615 19.3197 14.5068 19.289 14.7113 19.1664L16.4799 18.144C16.7457 17.9907 16.9502 17.7351 17.032 17.4284C17.1138 17.1217 17.0729 16.8048 16.9195 16.539C16.3368 15.5371 16.2652 14.5046 16.715 13.7174C17.1649 12.9302 18.0952 12.4804 19.2606 12.4804C19.9149 12.4804 20.4363 11.959 20.4363 11.3047V9.50538C20.4363 8.86131 19.9149 8.3297 19.2606 8.3297C18.0952 8.3297 17.1649 7.87988 16.715 7.09269C16.2652 6.30549 16.3368 5.27294 16.9195 4.27106C17.0729 4.00526 17.1138 3.68834 17.032 3.38164C16.9502 3.07494 16.7559 2.82958 16.4901 2.66601L14.7215 1.65391C14.2819 1.3881 13.6992 1.54145 13.4334 1.99127L13.3209 2.18552C12.7382 3.19762 11.8897 3.77012 10.9798 3.77012C10.0699 3.77012 9.22139 3.19762 8.63866 2.18552L8.52621 1.98105C8.27063 1.55167 7.69812 1.39833 7.25852 1.65391L5.4899 2.67623C5.22409 2.82958 5.01963 3.08516 4.93784 3.39186C4.85605 3.69856 4.89695 4.01548 5.0503 4.28129C5.63302 5.28317 5.70459 6.31572 5.25476 7.10291C4.80494 7.8901 3.87462 8.33993 2.70917 8.33993C2.05488 8.33993 1.53349 8.86131 1.53349 9.5156V11.3149C1.53349 11.959 2.05488 12.4906 2.70917 12.4906C3.87462 12.4906 4.80494 12.9404 5.25476 13.7276C5.70459 14.5148 5.63302 15.5473 5.0503 16.5492C4.89695 16.815 4.85605 17.1319 4.93784 17.4386C5.01963 17.7453 5.21387 17.9907 5.47967 18.1543L7.2483 19.1664C7.46299 19.2993 7.71857 19.3299 7.9537 19.2686C8.19906 19.2073 8.40353 19.0437 8.53643 18.829L8.64889 18.6348C9.23161 17.6329 10.0801 17.0502 10.99 17.0502Z" fill="#292D32"/>
</svg>
