<svg width="39" height="39" viewBox="0 0 39 39" fill="none" xmlns="http://www.w3.org/2000/svg">
<circle cx="19.5" cy="19.5" r="19.5" fill="#F6CA76"/>
<path d="M16.7071 21L16 20.2929L16.7071 19.5858L17.4142 20.2929L16.7071 21ZM17.7071 30C17.7071 30.5523 17.2594 31 16.7071 31C16.1548 31 15.7071 30.5523 15.7071 30H17.7071ZM11 25.2929L16 20.2929L17.4142 21.7071L12.4142 26.7071L11 25.2929ZM17.4142 20.2929L22.4142 25.2929L21 26.7071L16 21.7071L17.4142 20.2929ZM17.7071 21V30H15.7071V21H17.7071Z" fill="white"/>
<path d="M22.7071 19L22 19.7071L22.7071 20.4142L23.4142 19.7071L22.7071 19ZM23.7071 10C23.7071 9.44772 23.2594 9 22.7071 9C22.1548 9 21.7071 9.44771 21.7071 10H23.7071ZM17 14.7071L22 19.7071L23.4142 18.2929L18.4142 13.2929L17 14.7071ZM23.4142 19.7071L28.4142 14.7071L27 13.2929L22 18.2929L23.4142 19.7071ZM23.7071 19V10H21.7071V19H23.7071Z" fill="white"/>
</svg>
