<svg width="35" height="35" viewBox="0 0 35 35" fill="none" xmlns="http://www.w3.org/2000/svg">
<path d="M19.2092 24.4189H16.1488C13.9837 24.4189 12.2092 22.5956 12.2092 20.3491C12.2092 19.6817 12.7627 19.1282 13.4302 19.1282C14.0976 19.1282 14.6511 19.6817 14.6511 20.3491C14.6511 21.2445 15.3185 21.977 16.1488 21.977H19.2092C19.8441 21.977 20.3488 21.4072 20.3488 20.7072C20.3488 19.8282 20.1046 19.6979 19.5511 19.5026L14.6511 17.7933C13.6092 17.4351 12.2092 16.67 12.2092 14.277C12.2092 12.2422 13.8209 10.5654 15.7906 10.5654H18.8511C21.0162 10.5654 22.7906 12.3887 22.7906 14.6351C22.7906 15.3026 22.2371 15.8561 21.5697 15.8561C20.9023 15.8561 20.3488 15.3026 20.3488 14.6351C20.3488 13.7398 19.6813 13.0073 18.8511 13.0073H15.7906C15.1557 13.0073 14.6511 13.5771 14.6511 14.277C14.6511 15.1561 14.8953 15.2863 15.4488 15.4817L20.3488 17.191C21.3906 17.5491 22.7906 18.3142 22.7906 20.7072C22.7906 22.7584 21.179 24.4189 19.2092 24.4189Z" fill="white"/>
<path d="M17.5 26.0464C16.8325 26.0464 16.2791 25.4929 16.2791 24.8255V10.1743C16.2791 9.50686 16.8325 8.95337 17.5 8.95337C18.1674 8.95337 18.7209 9.50686 18.7209 10.1743V24.8255C18.7209 25.4929 18.1674 26.0464 17.5 26.0464Z" fill="white"/>
<path d="M17.5 35C7.84651 35 0 27.1535 0 17.5C0 7.84651 7.84651 0 17.5 0C18.1674 0 18.7209 0.553488 18.7209 1.22093C18.7209 1.88837 18.1674 2.44186 17.5 2.44186C9.19767 2.44186 2.44186 9.19767 2.44186 17.5C2.44186 25.8023 9.19767 32.5581 17.5 32.5581C25.8023 32.5581 32.5581 25.8023 32.5581 17.5C32.5581 16.8326 33.1116 16.2791 33.7791 16.2791C34.4465 16.2791 35 16.8326 35 17.5C35 27.1535 27.1535 35 17.5 35Z" fill="white"/>
<path d="M32.1513 10.5814H25.6396C24.9722 10.5814 24.4187 10.0279 24.4187 9.36049V2.84886C24.4187 2.18142 24.9722 1.62793 25.6396 1.62793C26.3071 1.62793 26.8606 2.18142 26.8606 2.84886V8.13956H32.1513C32.8187 8.13956 33.3722 8.69305 33.3722 9.36049C33.3722 10.0279 32.8187 10.5814 32.1513 10.5814Z" fill="white"/>
<path d="M25.6387 10.5812C25.3294 10.5812 25.0201 10.4673 24.7759 10.2231C24.3039 9.751 24.3039 8.9696 24.7759 8.49751L32.9155 0.357976C33.3876 -0.114117 34.169 -0.114117 34.6411 0.357976C35.1132 0.830069 35.1132 1.61146 34.6411 2.08356L26.5015 10.2231C26.2573 10.4673 25.948 10.5812 25.6387 10.5812Z" fill="white"/>
</svg>
