<svg width="16" height="22" viewBox="0 0 16 22" fill="none" xmlns="http://www.w3.org/2000/svg">
<path d="M10.3489 18.3763L11.9182 19.9455L15.0566 16.807" stroke="white" stroke-width="1.5" stroke-linecap="round" stroke-linejoin="round"/>
<path d="M7.99532 9.93144C7.89209 9.92112 7.7682 9.92112 7.65464 9.93144C5.19756 9.84885 3.24637 7.83572 3.24637 5.35802C3.23605 2.82871 5.29047 0.774281 7.81982 0.774281C10.3491 0.774281 12.4036 2.82871 12.4036 5.35802C12.4036 7.83572 10.442 9.84885 7.99532 9.93144Z" stroke="white" stroke-width="1.5" stroke-linecap="round" stroke-linejoin="round"/>
<path d="M7.82019 21.2257C5.94127 21.2257 4.07272 20.7508 2.64804 19.801C0.149694 18.1286 0.149694 15.4031 2.64804 13.741C5.48707 11.8414 10.143 11.8414 12.9821 13.741" stroke="white" stroke-width="1.5" stroke-linecap="round" stroke-linejoin="round"/>
</svg>
