<svg width="32" height="32" viewBox="0 0 32 32" fill="none" xmlns="http://www.w3.org/2000/svg">
<path d="M11.5 31H20.5C28 31 31 28 31 20.5V11.5C31 4 28 1 20.5 1H11.5C4 1 1 4 1 11.5V20.5C1 28 4 31 11.5 31Z" stroke="white" stroke-width="2" stroke-linecap="round" stroke-linejoin="round"/>
<path d="M1 17.1406L9.99549 17.1109C11.1199 17.1109 12.3793 17.9577 12.7991 18.9975L14.5083 23.2758C14.8981 24.2414 15.5128 24.2414 15.9026 23.2758L19.3359 14.645C19.6657 13.8131 20.2804 13.7834 20.7002 14.5707L22.2594 17.4972C22.7242 18.3736 23.9236 19.0867 24.9131 19.0867H31" stroke="white" stroke-width="2" stroke-linecap="round" stroke-linejoin="round"/>
</svg>
