<svg width="752" height="299" viewBox="0 0 752 299" fill="none" xmlns="http://www.w3.org/2000/svg">
<path d="M153.5 239C205.139 239 247 196.915 247 145C247 93.0852 205.139 51 153.5 51C101.861 51 60 93.0852 60 145C60 196.915 101.861 239 153.5 239Z" fill="black"/>
<path d="M514 53H480V117H514V53Z" fill="black"/>
<path d="M514 151H480V218H514V151Z" fill="black"/>
<path d="M711 151H677V218H711V151Z" fill="black"/>
<path d="M602.216 91.8352C606.409 87.4698 611.478 84.0499 617.087 81.8026C622.697 79.5553 628.718 78.5319 634.751 78.8005C647.899 78.8005 658.11 82.8215 665.785 90.9305C672.165 98.1837 675.989 107.346 676.663 117H711C710.266 96.2918 704.549 80.152 693.848 68.5804C682.302 56.227 666.986 50.0392 647.899 50.0168C635.224 49.7255 622.75 53.2246 612.06 60.0693C601.694 66.8999 593.923 77.0405 590.003 88.853V52.731H556V117H591.004C592.098 107.66 596.011 98.8789 602.216 91.8352Z" fill="black"/>
<path d="M590 151H556V218H590V151Z" fill="black"/>
<path d="M752 117H711C711 118.553 711 120.072 711 121.659V151H751.762L752 117Z" fill="black"/>
<path d="M439.121 117.33V53.1369H405.055V91.4251C400.863 79.5257 393.018 69.2622 382.645 62.1065C371.366 54.5007 357.993 50.6266 344.405 51.0284C330.932 50.7522 317.648 54.228 306.03 61.069C294.577 68.0816 285.391 78.2633 279.579 90.3876C272.935 104.405 269.663 119.788 270.027 135.303C269.711 150.167 272.664 164.919 278.677 178.511C278.319 181.331 278.129 184.169 278.11 187.012V228.011C279.679 255.087 290.667 271.52 304.828 282.498C318.989 293.476 337.725 298.965 360.836 298.965C375.416 299.392 389.847 295.927 402.65 288.924C414.145 282.384 423.523 272.672 429.669 260.944C436.125 248.31 439.361 234.271 439.088 220.079V151.033H480V117.33H439.121ZM318.588 95.4749C323.272 90.6022 328.938 86.7862 335.21 84.2815C341.482 81.7768 348.214 80.6408 354.958 80.9494C363.968 80.7946 372.849 83.1092 380.641 87.6432C388.227 92.2617 394.37 98.9166 398.376 106.854C400.12 110.194 401.519 113.704 402.55 117.33H347.778C332.315 117.337 317.3 122.533 305.129 132.09C305.696 116.728 310.138 104.511 318.588 95.4749ZM403.352 151.033C402.28 155.608 400.607 160.02 398.376 164.153C394.287 172.044 388.074 178.63 380.441 183.163C372.654 187.711 363.769 190.027 354.758 189.857C348.025 190.156 341.305 189.015 335.046 186.511C328.786 184.006 323.131 180.195 318.454 175.331C317.352 174.126 316.284 172.855 315.115 171.549C318.059 165.379 322.692 160.174 328.475 156.541C334.258 152.909 340.953 150.998 347.778 151.033H403.352ZM405.055 219.845C405.055 235.82 400.669 247.992 391.896 256.359C387.434 260.562 382.185 263.838 376.453 265.998C370.721 268.158 364.619 269.159 358.498 268.943C347.744 269.386 337.113 266.513 328.04 260.71C320.091 255.221 311.875 238.788 311.908 229.718V212.984C322.084 217.795 333.22 220.222 344.471 220.079C358.06 220.481 371.433 216.607 382.712 209.001C393.04 201.844 400.858 191.609 405.055 179.749V219.845Z" fill="black"/>
<path d="M497.5 34C507.165 34 515 26.3888 515 17C515 7.61116 507.165 0 497.5 0C487.835 0 480 7.61116 480 17C480 26.3888 487.835 34 497.5 34Z" fill="black"/>
</svg>
