<svg width="38" height="38" viewBox="0 0 38 38" fill="none" xmlns="http://www.w3.org/2000/svg">
<path d="M29.7918 10.2869C29.6838 10.2689 29.5578 10.2689 29.4498 10.2869C26.9661 10.1969 24.9864 8.16316 24.9864 5.64346C24.9864 3.06976 27.0561 1 29.6298 1C32.2035 1 34.2733 3.08776 34.2733 5.64346C34.2553 8.16316 32.2755 10.1969 29.7918 10.2869Z" stroke="white" stroke-width="2" stroke-linecap="round" stroke-linejoin="round"/>
<path d="M27.9388 23.3895C30.4045 23.8035 33.1222 23.3715 35.03 22.0937C37.5677 20.4019 37.5677 17.6302 35.03 15.9384C33.1042 14.6606 30.3505 14.2286 27.8848 14.6606" stroke="white" stroke-width="2" stroke-linecap="round" stroke-linejoin="round"/>
<path d="M8.14163 10.2869C8.24962 10.2689 8.37561 10.2689 8.48359 10.2869C10.9673 10.1969 12.9471 8.16316 12.9471 5.64346C12.9471 3.06976 10.8773 1 8.30362 1C5.72992 1 3.66016 3.08776 3.66016 5.64346C3.67816 8.16316 5.65793 10.1969 8.14163 10.2869Z" stroke="white" stroke-width="2" stroke-linecap="round" stroke-linejoin="round"/>
<path d="M9.99445 23.3895C7.52874 23.8035 4.81105 23.3715 2.90328 22.0937C0.365575 20.4019 0.365575 17.6302 2.90328 15.9384C4.82905 14.6606 7.58273 14.2286 10.0484 14.6606" stroke="white" stroke-width="2" stroke-linecap="round" stroke-linejoin="round"/>
<path d="M18.993 23.7313C18.885 23.7133 18.7591 23.7133 18.6511 23.7313C16.1674 23.6413 14.1875 21.6076 14.1875 19.0879C14.1875 16.5142 16.2573 14.4444 18.831 14.4444C21.4047 14.4444 23.4745 16.5322 23.4745 19.0879C23.4565 21.6076 21.4767 23.6593 18.993 23.7313Z" stroke="white" stroke-width="2" stroke-linecap="round" stroke-linejoin="round"/>
<path d="M13.7568 29.4004C11.2191 31.0922 11.2191 33.8639 13.7568 35.5557C16.6365 37.4814 21.352 37.4814 24.2316 35.5557C26.7693 33.8639 26.7693 31.0922 24.2316 29.4004C21.37 27.4926 16.6365 27.4926 13.7568 29.4004Z" stroke="white" stroke-width="2" stroke-linecap="round" stroke-linejoin="round"/>
</svg>
