<svg width="39" height="39" viewBox="0 0 39 39" fill="none" xmlns="http://www.w3.org/2000/svg">
<circle cx="19.5" cy="19.5" r="19.5" fill="#75C3FA"/>
<path d="M23.5 25H25.8C26.9201 25 27.4802 25 27.908 24.782C28.2843 24.5903 28.5903 24.2843 28.782 23.908C29 23.4802 29 22.9201 29 21.8V15.2C29 14.0799 29 13.5198 28.782 13.092C28.5903 12.7157 28.2843 12.4097 27.908 12.218C27.4802 12 26.9201 12 25.8 12H13.2C12.0799 12 11.5198 12 11.092 12.218C10.7157 12.4097 10.4097 12.7157 10.218 13.092C10 13.5198 10 14.0799 10 15.2V21.8C10 22.9201 10 23.4802 10.218 23.908C10.4097 24.2843 10.7157 24.5903 11.092 24.782C11.5198 25 12.0799 25 13.2 25H15.5" stroke="#7E869E" stroke-opacity="0.25" stroke-linecap="round"/>
<path d="M14 16L18.6213 20.6213C19.1839 21.1839 19.5 21.947 19.5 22.7426V24.5M14 16H16M14 16V18" stroke="white" stroke-width="1.5" stroke-linecap="round" stroke-linejoin="round"/>
<path d="M25 16L20.3787 20.6213C19.8161 21.1839 19.5 21.947 19.5 22.7426V26.5M25 16H23M25 16V18" stroke="white" stroke-width="1.5" stroke-linecap="round" stroke-linejoin="round"/>
</svg>
