<svg width="62" height="14" viewBox="0 0 62 14" fill="none" xmlns="http://www.w3.org/2000/svg">
<path d="M0 0.128204H4.42171V13.3653H0V0.128204Z" fill="#3864FF"/>
<path d="M8.84341 4.55124H13.2651V13.3653H8.84341V4.55124Z" fill="#3864FF"/>
<path d="M8.84341 0H13.2651V4.55124H8.84341V0Z" fill="#90A8FF"/>
<path d="M22.0765 0.128204H26.4982V13.3653H22.0765V0.128204Z" fill="#90C6E3"/>
<path d="M39.7633 0.128204H44.185V13.3653H39.7633V0.128204Z" fill="#FFA422"/>
<path d="M13.2651 0.128204L26.4982 13.3653H13.2651V0.128204Z" fill="#B8DDF1"/>
<path d="M39.7633 0.128204L26.5302 13.3653V0.128204H39.7633Z" fill="#F4C37D"/>
<path d="M26.5302 0.128204L39.7633 13.3653H26.5302V0.128204Z" fill="#F5E0C1"/>
<path d="M0 13.3653V8.97428H8.84341V13.3653H0Z" fill="#90A8FF"/>
<path d="M39.7633 0.128204H48.5747V2.72434H39.7633V0.128204Z" fill="#FF5353"/>
<path d="M39.7633 5.44867H48.5747V8.0448H39.7633V5.44867Z" fill="#FF5353"/>
<path d="M39.7633 10.7691H48.5747V13.3653H39.7633V10.7691Z" fill="#FF5353"/>
<path d="M62 6.74674C62 10.4021 59.0305 13.3653 55.3674 13.3653C51.7044 13.3653 48.7349 10.4021 48.7349 6.74674C48.7349 3.09142 51.7044 0.128204 55.3674 0.128204C59.0305 0.128204 62 3.09142 62 6.74674Z" fill="#6FE9A7"/>
<path d="M48.7028 0.128204H55.1752V13.3653H48.7028V0.128204Z" fill="#D4FCBC"/>
<path d="M51.9755 10.7095C52.2088 10.7095 52.4086 10.7515 52.5749 10.8355C52.7405 10.9189 52.8674 11.0327 52.9555 11.1771C53.0436 11.3208 53.0877 11.4838 53.0877 11.6661C53.0877 11.8484 53.0436 12.0118 52.9555 12.1561C52.8667 12.2998 52.7395 12.4137 52.5738 12.4977C52.4075 12.5811 52.2081 12.6228 51.9755 12.6228C51.7422 12.6228 51.5427 12.5811 51.3771 12.4977C51.2108 12.4137 51.0835 12.2998 50.9954 12.1561C50.9073 12.0118 50.8633 11.8484 50.8633 11.6661C50.8633 11.4838 50.9073 11.3208 50.9954 11.1771C51.0835 11.0327 51.2108 10.9189 51.3771 10.8355C51.5427 10.7515 51.7422 10.7095 51.9755 10.7095ZM51.9755 11.0887C51.8112 11.0887 51.6728 11.1134 51.56 11.1629C51.4465 11.2117 51.3609 11.2794 51.3031 11.3662C51.2446 11.453 51.2153 11.5529 51.2153 11.6661C51.2153 11.7793 51.2446 11.8793 51.3031 11.966C51.3609 12.0528 51.4465 12.1209 51.56 12.1704C51.6728 12.2192 51.8112 12.2435 51.9755 12.2435C52.1397 12.2435 52.2785 12.2192 52.392 12.1704C52.5048 12.1209 52.5904 12.0528 52.6489 11.966C52.7067 11.8793 52.7356 11.7793 52.7356 11.6661C52.7356 11.5529 52.7067 11.453 52.6489 11.3662C52.5904 11.2794 52.5048 11.2117 52.392 11.1629C52.2785 11.1134 52.1397 11.0887 51.9755 11.0887Z" fill="#1D6940"/>
<path d="M53.0581 10.3529H50.8929V9.57211C50.8929 9.41216 50.9218 9.27796 50.9796 9.16952C51.0374 9.0604 51.1184 8.97806 51.2227 8.92248C51.3263 8.86623 51.4472 8.8381 51.5854 8.8381C51.7242 8.8381 51.8447 8.86657 51.9469 8.9235C52.0484 8.97975 52.127 9.06278 52.1827 9.17257C52.2377 9.28237 52.2651 9.41724 52.2651 9.57719V10.1333H51.9395V9.62802C51.9395 9.53449 51.9261 9.45791 51.8993 9.39826C51.8719 9.33862 51.832 9.29457 51.7799 9.2661C51.727 9.23696 51.6622 9.22239 51.5854 9.22239C51.5085 9.22239 51.443 9.23696 51.3887 9.2661C51.3337 9.29525 51.2922 9.33964 51.264 9.39928C51.2351 9.45892 51.2206 9.53585 51.2206 9.63005V9.97571H53.0581V10.3529ZM52.077 9.27729L53.0581 8.76186V9.18274L52.077 9.68902V9.27729Z" fill="#1D6940"/>
<path d="M50.8929 8.11376H53.0581V8.49092H50.8929V8.11376Z" fill="#1D6940"/>
<path d="M51.5843 6.31051C51.5272 6.32746 51.4761 6.35084 51.431 6.38066C51.3852 6.4098 51.3461 6.44505 51.3137 6.48639C51.2812 6.52705 51.2569 6.57382 51.2407 6.62668C51.2238 6.67955 51.2153 6.73716 51.2153 6.79951C51.2153 6.91134 51.2446 7.01097 51.3031 7.0984C51.3616 7.18583 51.4476 7.25462 51.561 7.30477C51.6738 7.35425 51.8112 7.37899 51.9734 7.37899C52.1369 7.37899 52.2754 7.35425 52.3888 7.30477C52.5023 7.2553 52.5887 7.18651 52.6479 7.0984C52.7064 7.01029 52.7356 6.90795 52.7356 6.79138C52.7356 6.68565 52.7145 6.59415 52.6722 6.51689C52.6299 6.43895 52.57 6.37897 52.4924 6.33695C52.4142 6.29492 52.3226 6.27391 52.2176 6.27391L52.2313 6.18852V6.75376H51.9247V5.90895H52.1848C52.3702 5.90895 52.5305 5.9469 52.6658 6.02281C52.8012 6.09872 52.9055 6.20309 52.9788 6.33593C53.0514 6.46877 53.0877 6.62126 53.0877 6.79341C53.0877 6.98521 53.0429 7.15364 52.9534 7.29868C52.8632 7.44304 52.7353 7.55588 52.5696 7.63721C52.4033 7.71786 52.2059 7.75819 51.9776 7.75819C51.8028 7.75819 51.6467 7.73447 51.5092 7.68703C51.3718 7.63891 51.2552 7.57181 51.1593 7.48573C51.0627 7.39966 50.9894 7.29868 50.9394 7.18278C50.8887 7.06688 50.8633 6.94082 50.8633 6.80459C50.8633 6.68938 50.8809 6.58195 50.9161 6.48232C50.9507 6.38269 51 6.29425 51.0642 6.21698C51.1283 6.13904 51.2044 6.07499 51.2925 6.02484C51.3806 5.97469 51.4779 5.94182 51.5843 5.92623V6.31051Z" fill="#1D6940"/>
<path d="M50.8929 5.16706H53.0581V5.54423H50.8929V5.16706Z" fill="#1D6940"/>
<path d="M50.8929 3.04765H53.0581V3.38314L51.5832 4.36418V4.38146H53.0581V4.75863H50.8929V4.42111L52.3688 3.44108V3.42278H50.8929V3.04765Z" fill="#1D6940"/>
<path d="M51.4881 1.50517C51.3958 1.51466 51.3239 1.55465 51.2724 1.62513C51.221 1.69494 51.1952 1.78576 51.1952 1.89759C51.1952 1.97621 51.2076 2.04364 51.2322 2.0999C51.2569 2.15615 51.2904 2.19919 51.3327 2.22901C51.375 2.25883 51.4233 2.27408 51.4775 2.27476C51.5226 2.27476 51.5617 2.26493 51.5949 2.24528C51.628 2.22494 51.6562 2.19749 51.6794 2.16293C51.702 2.12836 51.721 2.09007 51.7365 2.04805C51.752 2.00603 51.7651 1.96367 51.7757 1.92097L51.8264 1.72578C51.8454 1.64716 51.8712 1.57159 51.9036 1.49907C51.936 1.42587 51.9769 1.36047 52.0262 1.30286C52.0756 1.24458 52.1351 1.19849 52.2049 1.1646C52.2747 1.13071 52.3564 1.11377 52.4502 1.11377C52.577 1.11377 52.6887 1.14495 52.7853 1.2073C52.8811 1.26965 52.9562 1.35979 53.0105 1.47772C53.064 1.59497 53.0908 1.73696 53.0908 1.90369C53.0908 2.06567 53.0647 2.2063 53.0126 2.32559C52.9604 2.4442 52.8843 2.53705 52.7842 2.60414C52.6842 2.67056 52.5622 2.70649 52.4184 2.71191V2.34084C52.4939 2.33542 52.5566 2.31305 52.6066 2.27374C52.6567 2.23443 52.694 2.18326 52.7187 2.12023C52.7434 2.05652 52.7557 1.98536 52.7557 1.90674C52.7557 1.82473 52.743 1.75289 52.7176 1.69121C52.6916 1.62886 52.6556 1.58006 52.6098 1.54482C52.5633 1.50958 52.509 1.49162 52.447 1.49094C52.3906 1.49162 52.3441 1.50754 52.3074 1.53872C52.2701 1.5699 52.2391 1.61361 52.2144 1.66986C52.189 1.72544 52.1665 1.7905 52.1467 1.86506L52.0833 2.10193C52.0375 2.2734 51.9681 2.40895 51.875 2.50858C51.7813 2.60753 51.6569 2.65701 51.5018 2.65701C51.3743 2.65701 51.2626 2.6238 51.1667 2.55738C51.0708 2.49028 50.9965 2.39912 50.9436 2.28391C50.8901 2.16869 50.8633 2.03822 50.8633 1.89251C50.8633 1.74476 50.8901 1.61531 50.9436 1.50415C50.9965 1.39233 51.0701 1.30456 51.1646 1.24085C51.2583 1.17714 51.3662 1.14427 51.4881 1.14224V1.50517Z" fill="#1D6940"/>
</svg>
