<svg width="8" height="8" viewBox="0 0 8 8" fill="none" xmlns="http://www.w3.org/2000/svg">
<path d="M4.63752 3.57749L6.93752 1.2775C7.22752 0.9875 7.22752 0.5075 6.93752 0.2175C6.64752 -0.0725 6.16752 -0.0725 5.87752 0.2175L3.57752 2.51749L1.27749 0.2175C0.98749 -0.0725 0.50749 -0.0725 0.2175 0.2175C-0.0725 0.5075 -0.0725 0.9875 0.2175 1.2775L2.51752 3.57749L0.2175 5.87749C-0.0725 6.16749 -0.0725 6.64749 0.2175 6.93749C0.3675 7.08749 0.557489 7.15749 0.747489 7.15749C0.937489 7.15749 1.12749 7.08749 1.27749 6.93749L3.57752 4.63749L5.87752 6.93749C6.02752 7.08749 6.21752 7.15749 6.40752 7.15749C6.59752 7.15749 6.78752 7.08749 6.93752 6.93749C7.22752 6.64749 7.22752 6.16749 6.93752 5.87749L4.63752 3.57749Z" fill="#292D32"/>
</svg>
